#!OML:ASF F:\VICON\USERDATA\INSTALL\rory3\rory3.ASF
:FULLY-SPECIFIED
:DEGREES
654
root -1.17671 16.665 26.8517 213.987 147.663 -172.061
lowerback -21.902 -4.24968 6.97792
upperback -11.2491 -6.70102 4.35072
thorax -0.415132 -3.44455 -0.639747
lowerneck 6.94173 -21.1925 -15.8508
upperneck 7.62114 -29.9793 10.6778
head 5.14568 -15.0946 3.75409
rclavicle 1.94188e-014 -2.38542e-014
rhumerus -46.5655 3.3522 -63.714
rradius 14.3622
rwrist -14.0489
rhand 22.7671 8.40266
rfingers 7.12502
rthumb 47.1036 -14.2178
lclavicle 1.94188e-014 -2.38542e-014
lhumerus -238.116 -193.207 233.015
lradius 22.9028
lwrist -3.03515
lhand 23.4158 26.2083
lfingers 7.12502
lthumb 47.7029 48.5586
rfemur 121.392 -186.73 -162.238
rtibia 44.3426
rfoot -52.1356 -37.818
rtoes 41.3783
lfemur -16.0787 -0.169861 -26.8971
ltibia 36.3606
lfoot 12.8986 37.7911
ltoes 5.21052
655
root -1.17858 16.6633 26.8593 214.12 147.954 -171.951
lowerback -21.8211 -4.22171 6.805
upperback -11.3339 -6.61802 4.2476
thorax -0.534071 -3.40499 -0.626655
lowerneck 6.63107 -21.2906 -15.6488
upperneck 7.92175 -30.0668 10.4323
head 5.23069 -15.1238 3.61164
rclavicle -1.25623e-014 -4.77083e-015
rhumerus -46.506 2.59826 -63.2172
rradius 14.1943
rwrist -13.1086
rhand 22.7298 8.60587
rfingers 7.12502
rthumb 47.0691 -14.0298
lclavicle -1.25623e-014 -4.77083e-015
lhumerus -238.055 -193.142 233.01
lradius 22.8668
lwrist -2.95151
lhand 23.2736 26.4715
lfingers 7.12502
lthumb 47.5715 48.8818
rfemur 121.241 -187.278 -162.755
rtibia 44.3828
rfoot -52.6389 -37.8296
rtoes 41.8393
lfemur -16.1051 -0.0189109 -27.1155
ltibia 36.2665
lfoot 12.7279 37.8188
ltoes 5.85962
656
root -1.17974 16.6628 26.8662 214.3 148.234 -171.781
lowerback -21.802 -4.20446 6.56608
upperback -11.4091 -6.54321 4.15303
thorax -0.602847 -3.36417 -0.576229
lowerneck 6.50281 -21.3662 -15.4353
upperneck 7.98615 -30.1332 10.2758
head 5.22324 -15.1497 3.52924
rclavicle -4.92807e-014 -4.29375e-014
rhumerus -46.542 2.42538 -63.1777
rradius 14.1811
rwrist -12.9249
rhand 22.6612 8.58898
rfingers 7.12502
rthumb 47.0057 -14.0747
lclavicle -4.92807e-014 -4.29375e-014
lhumerus -238.012 -192.913 233.297
lradius 23.0693
lwrist -2.62833
lhand 23.243 26.7259
lfingers 7.12502
lthumb 47.5434 49.149
rfemur 121.11 -187.348 -162.995
rtibia 44.414
rfoot -52.3529 -38.0478
rtoes 41.4481
lfemur -16.1081 0.08708 -27.3776
ltibia 36.182
lfoot 10.7002 38.3855
ltoes 10.3238
657
root -1.17983 16.6628 26.8703 214.182 148.325 -171.899
lowerback -21.7698 -4.24681 6.53778
upperback -11.4093 -6.59322 4.21149
thorax -0.610547 -3.38697 -0.506082
lowerneck 6.58605 -21.312 -15.3668
upperneck 7.94156 -30.0582 10.2368
head 5.17151 -15.1165 3.5383
rclavicle -5.81678e-014 -2.38542e-014
rhumerus -46.5244 2.58743 -63.2978
rradius 14.1865
rwrist -12.8992
rhand 22.4617 8.79905
rfingers 7.12502
rthumb 46.8211 -13.9456
lclavicle -5.81678e-014 -2.38542e-014
lhumerus -238.121 -192.562 233.801
lradius 23.4021
lwrist -2.00591
lhand 23.2716 27.0267
lfingers 7.12502
lthumb 47.5698 49.4378
rfemur 121.218 -187.498 -162.937
rtibia 44.3573
rfoot -52.3247 -38.1175
rtoes 41.2617
lfemur -15.9849 0.0957385 -27.2843
ltibia 36.1757
lfoot 7.11406 39.0635
ltoes 17.0442
658
root -1.18052 16.6623 26.8734 214.039 148.412 -172.076
lowerback -21.6848 -4.25045 6.57081
upperback -11.4274 -6.59791 4.28907
thorax -0.667472 -3.39048 -0.434761
lowerneck 6.72816 -21.2415 -15.4477
upperneck 7.84331 -29.9874 10.3474
head 5.13944 -15.0878 3.60432
rclavicle 1.35733e-015 3.33958e-014
rhumerus -46.5018 2.64577 -63.2723
rradius 14.1798
rwrist -12.7867
rhand 22.4728 9.07442
rfingers 7.12502
rthumb 46.8313 -13.6657
lclavicle 1.35733e-015 3.33958e-014
lhumerus -238.193 -192.46 234.018
lradius 23.4527
lwrist -1.7956
lhand 23.2259 27.0586
lfingers 7.12502
lthumb 47.5275 49.4889
rfemur 121.33 -187.86 -162.978
rtibia 44.2617
rfoot -52.6834 -37.9735
rtoes 41.613
lfemur -15.9376 0.199949 -27.1637
ltibia 36.2181
lfoot 5.71641 39.2387
ltoes 19.37
659
root -1.17495 16.6686 26.8751 213.661 148.163 -172.687
lowerback -21.5888 -4.16138 7.22634
upperback -11.4566 -6.58884 4.37811
thorax -0.823016 -3.41562 -0.682757
lowerneck 6.89361 -21.2012 -15.4684
upperneck 7.77607 -29.9617 10.462
head 5.11123 -15.0804 3.6617
rclavicle 1.1263e-013 -4.92986e-014
rhumerus -46.6015 2.64039 -63.3525
rradius 14.2126
rwrist -12.6917
rhand 22.3776 9.18865
rfingers 7.12502
rthumb 46.7432 -13.5899
lclavicle 1.1263e-013 -4.92986e-014
lhumerus -238.284 -192.362 234.001
lradius 23.4913
lwrist -1.75979
lhand 23.1465 26.8101
lfingers 7.12502
lthumb 47.4542 49.2736
rfemur 121.573 -187.744 -162.173
rtibia 44.1347
rfoot -52.3559 -37.9022
rtoes 41.4514
lfemur -15.9366 0.391755 -26.5338
ltibia 36.2954
lfoot 6.22677 39.2079
ltoes 19.1334
660
root -1.17032 16.6724 26.8744 213.515 148.134 -172.943
lowerback -21.4819 -4.10953 7.53232
upperback -11.5776 -6.55358 4.37441
thorax -1.04988 -3.42043 -0.827185
lowerneck 7.08189 -21.1578 -15.6233
upperneck 7.96515 -29.9574 10.4926
head 5.16904 -15.0868 3.69263
rclavicle 3.2874e-014 3.49861e-014
rhumerus -46.8535 2.89628 -63.5848
rradius 14.3277
rwrist -12.902
rhand 22.2555 9.14119
rfingers 7.12502
rthumb 46.6302 -13.6863
lclavicle 3.2874e-014 3.49861e-014
lhumerus -238.497 -192.292 233.864
lradius 23.6576
lwrist -2.11326
lhand 23.6045 26.6862
lfingers 7.12502
lthumb 47.877 48.9562
rfemur 121.683 -187.857 -161.957
rtibia 44.0394
rfoot -52.3621 -37.9524
rtoes 41.1344
lfemur -15.9806 0.591485 -26.3308
ltibia 36.3711
lfoot 7.70635 38.94
ltoes 17.1386
